<?xml version="1.0" encoding="UTF-8" standalone="no"?>
<svg width="608" height="224" xmlns="http://www.w3.org/2000/svg">
<rect width="608" height="224" x="0" y="0" style="fill:rgb(255,255,255);stroke-width:1;stroke:rgb(0,0,0)" />
<rect width="576" height="192" x="16" y="16" style="fill:rgb(255,255,255);stroke-width:1;stroke:red;stroke-dasharray:2" />
<circle cx="32" cy="176" r="1" stroke="black" stroke-width="1" fill="red" />
<circle cx="48" cy="176" r="1" stroke="black" stroke-width="1" fill="red" />
<circle cx="96" cy="192" r="1" stroke="black" stroke-width="1" fill="red" />
<circle cx="64" cy="176" r="1" stroke="black" stroke-width="1" fill="red" />
<circle cx="80" cy="176" r="1" stroke="black" stroke-width="1" fill="red" />
<circle cx="192" cy="176" r="1" stroke="black" stroke-width="1" fill="red" />
<circle cx="208" cy="176" r="1" stroke="black" stroke-width="1" fill="red" />
<circle cx="224" cy="176" r="1" stroke="black" stroke-width="1" fill="red" />
<circle cx="240" cy="176" r="1" stroke="black" stroke-width="1" fill="red" />
<circle cx="256" cy="176" r="1" stroke="black" stroke-width="1" fill="red" />
<circle cx="112" cy="208" r="1" stroke="black" stroke-width="1" fill="red" />
<circle cx="128" cy="208" r="1" stroke="black" stroke-width="1" fill="red" />
<circle cx="144" cy="208" r="1" stroke="black" stroke-width="1" fill="red" />
<circle cx="160" cy="192" r="1" stroke="black" stroke-width="1" fill="red" />
<circle cx="176" cy="176" r="1" stroke="black" stroke-width="1" fill="red" />
<circle cx="272" cy="176" r="1" stroke="black" stroke-width="1" fill="red" />
<circle cx="288" cy="176" r="1" stroke="black" stroke-width="1" fill="red" />
<circle cx="304" cy="176" r="1" stroke="black" stroke-width="1" fill="red" />
<circle cx="320" cy="176" r="1" stroke="black" stroke-width="1" fill="red" />
<circle cx="336" cy="176" r="1" stroke="black" stroke-width="1" fill="red" />
<circle cx="416" cy="192" r="1" stroke="black" stroke-width="1" fill="red" />
<circle cx="432" cy="208" r="1" stroke="black" stroke-width="1" fill="red" />
<circle cx="448" cy="208" r="1" stroke="black" stroke-width="1" fill="red" />
<circle cx="464" cy="208" r="1" stroke="black" stroke-width="1" fill="red" />
<circle cx="480" cy="192" r="1" stroke="black" stroke-width="1" fill="red" />
<circle cx="496" cy="176" r="1" stroke="black" stroke-width="1" fill="red" />
<circle cx="352" cy="176" r="1" stroke="black" stroke-width="1" fill="red" />
<circle cx="368" cy="176" r="1" stroke="black" stroke-width="1" fill="red" />
<circle cx="384" cy="176" r="1" stroke="black" stroke-width="1" fill="red" />
<circle cx="400" cy="176" r="1" stroke="black" stroke-width="1" fill="red" />
<circle cx="496" cy="80" r="1" stroke="black" stroke-width="1" fill="red" />
<circle cx="480" cy="64" r="1" stroke="black" stroke-width="1" fill="red" />
<circle cx="464" cy="48" r="1" stroke="black" stroke-width="1" fill="red" />
<circle cx="448" cy="48" r="1" stroke="black" stroke-width="1" fill="red" />
<circle cx="432" cy="32" r="1" stroke="black" stroke-width="1" fill="red" />
<circle cx="416" cy="32" r="1" stroke="black" stroke-width="1" fill="red" />
<circle cx="400" cy="16" r="1" stroke="black" stroke-width="1" fill="red" />
<circle cx="384" cy="16" r="1" stroke="black" stroke-width="1" fill="red" />
<circle cx="368" cy="16" r="1" stroke="black" stroke-width="1" fill="red" />
<circle cx="352" cy="16" r="1" stroke="black" stroke-width="1" fill="red" />
<circle cx="336" cy="16" r="1" stroke="black" stroke-width="1" fill="red" />
<circle cx="320" cy="16" r="1" stroke="black" stroke-width="1" fill="red" />
<circle cx="304" cy="16" r="1" stroke="black" stroke-width="1" fill="red" />
<circle cx="288" cy="16" r="1" stroke="black" stroke-width="1" fill="red" />
<circle cx="272" cy="16" r="1" stroke="black" stroke-width="1" fill="red" />
<circle cx="256" cy="16" r="1" stroke="black" stroke-width="1" fill="red" />
<circle cx="240" cy="32" r="1" stroke="black" stroke-width="1" fill="red" />
<circle cx="224" cy="32" r="1" stroke="black" stroke-width="1" fill="red" />
<circle cx="208" cy="48" r="1" stroke="black" stroke-width="1" fill="red" />
<circle cx="512" cy="176" r="1" stroke="black" stroke-width="1" fill="red" />
<circle cx="528" cy="176" r="1" stroke="black" stroke-width="1" fill="red" />
<circle cx="544" cy="176" r="1" stroke="black" stroke-width="1" fill="red" />
<circle cx="560" cy="176" r="1" stroke="black" stroke-width="1" fill="red" />
<circle cx="576" cy="160" r="1" stroke="black" stroke-width="1" fill="red" />
<circle cx="592" cy="144" r="1" stroke="black" stroke-width="1" fill="red" />
<circle cx="592" cy="128" r="1" stroke="black" stroke-width="1" fill="red" />
<circle cx="576" cy="112" r="1" stroke="black" stroke-width="1" fill="red" />
<circle cx="560" cy="96" r="1" stroke="black" stroke-width="1" fill="red" />
<circle cx="544" cy="80" r="1" stroke="black" stroke-width="1" fill="red" />
<circle cx="528" cy="80" r="1" stroke="black" stroke-width="1" fill="red" />
<circle cx="512" cy="80" r="1" stroke="black" stroke-width="1" fill="red" />
<circle cx="192" cy="48" r="1" stroke="black" stroke-width="1" fill="red" />
<circle cx="176" cy="64" r="1" stroke="black" stroke-width="1" fill="red" />
<circle cx="160" cy="64" r="1" stroke="black" stroke-width="1" fill="red" />
<circle cx="144" cy="64" r="1" stroke="black" stroke-width="1" fill="red" />
<circle cx="128" cy="80" r="1" stroke="black" stroke-width="1" fill="red" />
<circle cx="112" cy="80" r="1" stroke="black" stroke-width="1" fill="red" />
<circle cx="96" cy="80" r="1" stroke="black" stroke-width="1" fill="red" />
<circle cx="80" cy="80" r="1" stroke="black" stroke-width="1" fill="red" />
<circle cx="64" cy="96" r="1" stroke="black" stroke-width="1" fill="red" />
<circle cx="48" cy="96" r="1" stroke="black" stroke-width="1" fill="red" />
<circle cx="32" cy="112" r="1" stroke="black" stroke-width="1" fill="red" />
<circle cx="16" cy="128" r="1" stroke="black" stroke-width="1" fill="red" />
<circle cx="16" cy="144" r="1" stroke="black" stroke-width="1" fill="red" />
<circle cx="16" cy="160" r="1" stroke="black" stroke-width="1" fill="red" />
</svg>